# xmcd
#
# Track frame offsets: 
#        150
#        18211
#        35502
#        58102
#        69506
#        86447
#        100589
#        125748
#        140881
#        157410
#        176348
#        194012
#
# Disc length: 2853 seconds
#
# Revision: 0
# Processed by: cddbd v1.5.2PL0 Copyright (c) Steve Scherf et al.
# Submitted via: ExactAudioCopy v1.0b2
#
DISCID=ac0b230c
DTITLE=Leah Marie King - Back to the Bridge
DYEAR=2009
DGENRE=Country
TTITLE0=Losing Kind
TTITLE1=Dreamin Crazy
TTITLE2=Prairie Man
TTITLE3=Just So You Know
TTITLE4=Sad Man
TTITLE5=Broken Dreams
TTITLE6=Banks of the River
TTITLE7=Promises Are Coming
TTITLE8=Wrong One
TTITLE9=My World
TTITLE10=So Clear
TTITLE11=Birmingham
EXTD=
EXTT0=
EXTT1=
EXTT2=
EXTT3=
EXTT4=
EXTT5=
EXTT6=
EXTT7=
EXTT8=
EXTT9=
EXTT10=
EXTT11=
PLAYORDER=
